<svg width="42" height="50" viewBox="0 0 42 50" fill="none" xmlns="http://www.w3.org/2000/svg">
<path d="M27.3858 25.718C30.2245 24.7175 32.6952 22.8837 34.4749 20.4564C36.2547 18.0292 37.2607 15.1215 37.3614 12.1133H3.86139C3.96141 15.0849 4.94665 17.959 6.6908 20.367C8.43495 22.7749 10.8585 24.6072 13.6508 25.6287L11.0192 30.8882C9.39399 30.6062 7.72295 30.7622 6.17807 31.3404C4.63319 31.9186 3.27026 32.8979 2.22953 34.1777C1.18881 35.4575 0.507878 36.9915 0.256813 38.6218C0.00574753 40.2521 0.193615 41.9198 0.801084 43.4534C1.40855 44.987 2.41368 46.3311 3.71304 47.3472C5.01239 48.3634 6.55905 49.015 8.19384 49.235C9.82863 49.455 11.4925 49.2354 13.0143 48.5989C14.536 47.9623 15.8607 46.9318 16.8519 45.6133H32.5709L33.8178 48.2822C34.0291 48.7289 34.4092 49.0733 34.8744 49.2398C35.3397 49.4063 35.852 49.3812 36.2987 49.1699C36.7454 48.9586 37.0899 48.5786 37.2564 48.1133C37.4229 47.6481 37.3977 47.1357 37.1864 46.689L27.3858 25.718ZM9.44472 44.6828C8.21073 44.6828 7.02727 44.1926 6.15471 43.32C5.28214 42.4474 4.79194 41.264 4.79194 40.03C4.79194 38.796 5.28214 37.6125 6.15471 36.74C7.02727 35.8674 8.21073 35.3772 9.44472 35.3772C10.6787 35.3772 11.8622 35.8674 12.7347 36.74C13.6073 37.6125 14.0975 38.796 14.0975 40.03C14.0975 41.264 13.6073 42.4474 12.7347 43.32C11.8622 44.1926 10.6787 44.6828 9.44472 44.6828V44.6828ZM18.5642 41.8911C18.94 40.0599 18.7532 38.1578 18.0285 36.4347C17.3037 34.7115 16.0749 33.2478 14.5032 32.2357L17.2614 26.7156C19.4091 27.1034 21.6089 27.1034 23.7567 26.7156L30.8289 41.865L18.5642 41.8911ZM10.3753 0.946655C10.1285 0.946655 9.89179 1.0447 9.71727 1.21921C9.54276 1.39372 9.44472 1.63041 9.44472 1.87721C9.44472 3.73832 7.58361 3.73832 7.58361 3.73832C3.86139 3.73832 3.86139 7.46054 3.86139 7.46054C3.86139 7.70734 3.95943 7.94403 4.13394 8.11855C4.30845 8.29306 4.54514 8.3911 4.79194 8.3911C5.03874 8.3911 5.27543 8.29306 5.44994 8.11855C5.62446 7.94403 5.7225 7.70734 5.7225 7.46054C5.7225 5.59943 7.58361 5.59943 7.58361 5.59943C11.3058 5.59943 11.3058 1.87721 11.3058 1.87721C11.3058 1.63041 11.2078 1.39372 11.0333 1.21921C10.8588 1.0447 10.6221 0.946655 10.3753 0.946655V0.946655ZM17.8197 0.946655C17.5729 0.946655 17.3362 1.0447 17.1617 1.21921C16.9872 1.39372 16.8892 1.63041 16.8892 1.87721C16.8892 3.73832 15.0281 3.73832 15.0281 3.73832C11.3058 3.73832 11.3058 7.46054 11.3058 7.46054C11.3058 7.70734 11.4039 7.94403 11.5784 8.11855C11.7529 8.29306 11.9896 8.3911 12.2364 8.3911C12.4832 8.3911 12.7199 8.29306 12.8944 8.11855C13.0689 7.94403 13.1669 7.70734 13.1669 7.46054C13.1669 5.59943 15.0281 5.59943 15.0281 5.59943C18.7503 5.59943 18.7503 1.87721 18.7503 1.87721C18.7503 1.63041 18.6522 1.39372 18.4777 1.21921C18.3032 1.0447 18.0665 0.946655 17.8197 0.946655V0.946655ZM25.2642 0.946655C25.0174 0.946655 24.7807 1.0447 24.6062 1.21921C24.4317 1.39372 24.3336 1.63041 24.3336 1.87721C24.3336 3.73832 22.4725 3.73832 22.4725 3.73832C18.7503 3.73832 18.7503 7.46054 18.7503 7.46054C18.7503 7.70734 18.8483 7.94403 19.0228 8.11855C19.1973 8.29306 19.434 8.3911 19.6808 8.3911C19.9276 8.3911 20.1643 8.29306 20.3388 8.11855C20.5133 7.94403 20.6114 7.70734 20.6114 7.46054C20.6114 5.59943 22.4725 5.59943 22.4725 5.59943C26.1947 5.59943 26.1947 1.87721 26.1947 1.87721C26.1947 1.63041 26.0967 1.39372 25.9222 1.21921C25.7477 1.0447 25.511 0.946655 25.2642 0.946655V0.946655ZM32.7086 0.946655C32.4618 0.946655 32.2251 1.0447 32.0506 1.21921C31.8761 1.39372 31.7781 1.63041 31.7781 1.87721C31.7781 3.73832 29.9169 3.73832 29.9169 3.73832C26.1947 3.73832 26.1947 7.46054 26.1947 7.46054C26.1947 7.70734 26.2928 7.94403 26.4673 8.11855C26.6418 8.29306 26.8785 8.3911 27.1253 8.3911C27.3721 8.3911 27.6088 8.29306 27.7833 8.11855C27.9578 7.94403 28.0558 7.70734 28.0558 7.46054C28.0558 5.59943 29.9169 5.59943 29.9169 5.59943C33.6392 5.59943 33.6392 1.87721 33.6392 1.87721C33.6392 1.63041 33.5411 1.39372 33.3666 1.21921C33.1921 1.0447 32.9554 0.946655 32.7086 0.946655V0.946655ZM40.1531 0.946655C39.9063 0.946655 39.6696 1.0447 39.4951 1.21921C39.3205 1.39372 39.2225 1.63041 39.2225 1.87721C39.2225 3.73832 37.3614 3.73832 37.3614 3.73832C33.6392 3.73832 33.6392 7.46054 33.6392 7.46054C33.6392 7.70734 33.7372 7.94403 33.9117 8.11855C34.0862 8.29306 34.3229 8.3911 34.5697 8.3911C34.8165 8.3911 35.0532 8.29306 35.2277 8.11855C35.4022 7.94403 35.5003 7.70734 35.5003 7.46054C35.5003 5.59943 37.3614 5.59943 37.3614 5.59943C41.0836 5.59943 41.0836 1.87721 41.0836 1.87721C41.0836 1.63041 40.9856 1.39372 40.8111 1.21921C40.6365 1.0447 40.3999 0.946655 40.1531 0.946655V0.946655Z" fill="black"/>
</svg>
