<svg width="55" height="34" viewBox="0 0 55 34" fill="none" xmlns="http://www.w3.org/2000/svg">
<g clip-path="url(#clip0_318_900)">
<path d="M7.19529 20.4199H52.5916C53.047 20.4199 53.441 20.5863 53.7738 20.9191C54.1066 21.2518 54.2729 21.6459 54.2729 22.1013V33.8707H47.5476V27.1453H7.19529V33.8707H0.46991V1.92512C0.46991 1.46975 0.636293 1.07569 0.969059 0.742924C1.30183 0.410157 1.69589 0.243774 2.15125 0.243774H5.51394C5.96931 0.243774 6.36337 0.410157 6.69614 0.742924C7.02891 1.07569 7.19529 1.46975 7.19529 1.92512V20.4199ZM22.3274 12.0132C22.3274 10.1567 21.6706 8.57168 20.3571 7.25813C19.0435 5.94458 17.4585 5.28781 15.602 5.28781C13.7455 5.28781 12.1605 5.94458 10.847 7.25813C9.53341 8.57168 8.87663 10.1567 8.87663 12.0132C8.87663 13.8697 9.53341 15.4547 10.847 16.7682C12.1605 18.0818 13.7455 18.7386 15.602 18.7386C17.4585 18.7386 19.0435 18.0818 20.3571 16.7682C21.6706 15.4547 22.3274 13.8697 22.3274 12.0132ZM54.2729 18.7386V17.0572C54.2729 14.2725 53.2878 11.895 51.3175 9.92464C49.3471 7.95432 46.9696 6.96915 44.1849 6.96915H25.6901C25.2347 6.96915 24.8407 7.13554 24.5079 7.4683C24.1751 7.80107 24.0087 8.19513 24.0087 8.6505V18.7386H54.2729Z" fill="black"/>
</g>
<defs>
<clipPath id="clip0_318_900">
<rect width="53.803" height="33.6269" fill="white" transform="translate(0.46991 0.243774)"/>
</clipPath>
</defs>
</svg>
