<svg width="45" height="45" viewBox="0 0 45 45" fill="none" xmlns="http://www.w3.org/2000/svg">
<path d="M8.21673 0C3.66502 0 0 3.66502 0 8.21673V36.7833C0 41.335 3.66502 45 8.21673 45H23.6996V27.4078H19.0477V21.0741H23.6996V15.6628C23.6996 11.4115 26.4481 7.50798 32.7797 7.50798C35.3433 7.50798 37.2389 7.75409 37.2389 7.75409L37.0899 13.6688C37.0899 13.6688 35.1565 13.6505 33.0469 13.6505C30.7636 13.6505 30.3975 14.7025 30.3975 16.449V21.0741H37.2713L36.9717 27.4079H30.3975V45.0001H36.7833C41.335 45.0001 45 41.3351 45 36.7834V8.21677C45 3.66507 41.335 4.5e-05 36.7833 4.5e-05H8.21669L8.21673 0Z" fill="white"/>
</svg>
