<svg width="44" height="41" viewBox="0 0 44 41" fill="none" xmlns="http://www.w3.org/2000/svg">
<path d="M43.1439 40.6525H0V36.383H43.1439V40.6525ZM43.1439 6.49653H0V0.0922852H43.1439V6.49653ZM38.8295 8.63128V34.2482H32.358V17.1703C32.358 17.1703 26.965 15.0355 21.572 15.0355C16.179 15.0355 10.786 17.1703 10.786 17.1703V34.2482H4.31439V8.63128H38.8295ZM26.965 25.0048H26.9002L27.6337 26.1789L27.7631 26.4351C28.6691 28.5912 28.0436 31.0461 26.3394 32.6258C24.8078 34.0348 22.6506 34.3977 20.6659 34.1415C18.7892 33.9067 17.0419 32.7326 16.0711 31.1102C15.7475 30.6192 15.5102 30.0428 15.3808 29.4878L15.1004 28.0788C15.0141 26.0295 15.8338 23.8734 17.387 22.5925C16.6751 24.1295 16.8477 26.0508 17.9047 27.3957L18.0342 27.5665C18.2067 27.7159 18.444 27.78 18.6382 27.6732C18.8323 27.6092 18.9833 27.4171 18.9833 27.2036L18.897 26.9047C17.7537 23.9374 18.7245 20.4791 21.119 18.5152C21.7877 17.9815 22.6506 17.4905 23.4487 17.277C22.5643 19.0275 22.8879 21.2903 24.2685 22.6566L26.1884 24.2149L26.965 25.0048ZM23.9665 30.918C24.5273 30.4057 24.8725 29.5518 24.8078 28.7833V28.3777C24.5489 27.0968 23.4056 26.6912 22.6506 25.7093L22.1328 24.7486C21.8524 25.389 21.8308 25.9868 21.9387 26.6912C22.0681 27.4171 22.3701 28.0361 22.1976 28.7833C22.0034 29.6158 21.3563 30.4484 20.2129 30.7259C20.8601 31.345 21.8955 31.836 22.9526 31.4944L23.9665 30.918Z" fill="black"/>
</svg>
