<svg width="48" height="48" viewBox="0 0 48 48" fill="none" xmlns="http://www.w3.org/2000/svg">
<g clip-path="url(#clip0_318_909)">
<path d="M25.642 3.02364C25.642 1.81061 24.6661 0.834717 23.4531 0.834717C22.24 0.834717 21.2642 1.81061 21.2642 3.02364V3.4979C21.2642 6.59887 22.5775 9.55392 24.885 11.6334L26.3808 12.9832C27.7671 14.2327 28.5514 16.0021 28.5514 17.8627V19.0757C28.5514 20.2887 29.5273 21.2646 30.7404 21.2646C31.9534 21.2646 32.9293 20.2887 32.9293 19.0757V17.8718C32.9293 14.7708 31.6159 11.8158 29.3084 9.73633L27.8127 8.38649C26.4355 7.13698 25.642 5.36761 25.642 3.4979V3.02364ZM0.834229 30.0203V41.6946C0.834229 44.9141 3.45181 47.5317 6.67135 47.5317H41.6941C44.9136 47.5317 47.5312 44.9141 47.5312 41.6946V30.0203C47.5312 26.8008 44.9136 24.1832 41.6941 24.1832H26.1254C24.8668 24.1832 23.6355 23.7728 22.6231 23.0158L14.8433 17.1787C13.3293 16.0386 11.487 15.4275 9.58991 15.4275C4.75604 15.4275 0.834229 19.3493 0.834229 24.1832V30.0203ZM12.5085 31.4796V40.2353C12.5085 41.0379 11.8518 41.6946 11.0492 41.6946C10.2466 41.6946 9.58991 41.0379 9.58991 40.2353V31.4796C9.58991 30.677 10.2466 30.0203 11.0492 30.0203C11.8518 30.0203 12.5085 30.677 12.5085 31.4796ZM19.8049 30.0203C20.6075 30.0203 21.2642 30.677 21.2642 31.4796V40.2353C21.2642 41.0379 20.6075 41.6946 19.8049 41.6946C19.0023 41.6946 18.3456 41.0379 18.3456 40.2353V31.4796C18.3456 30.677 19.0023 30.0203 19.8049 30.0203ZM30.0198 31.4796V40.2353C30.0198 41.0379 29.3632 41.6946 28.5606 41.6946C27.758 41.6946 27.1013 41.0379 27.1013 40.2353V31.4796C27.1013 30.677 27.758 30.0203 28.5606 30.0203C29.3632 30.0203 30.0198 30.677 30.0198 31.4796ZM37.3162 30.0203C38.1188 30.0203 38.7755 30.677 38.7755 31.4796V40.2353C38.7755 41.0379 38.1188 41.6946 37.3162 41.6946C36.5136 41.6946 35.857 41.0379 35.857 40.2353V31.4796C35.857 30.677 36.5136 30.0203 37.3162 30.0203ZM33.668 0.834717C32.455 0.834717 31.4791 1.81061 31.4791 3.02364V3.4979C31.4791 6.59887 32.7925 9.55392 35.1 11.6334L36.5957 12.9832C37.982 14.2327 38.7664 16.0021 38.7664 17.8627V19.0757C38.7664 20.2887 39.7423 21.2646 40.9553 21.2646C42.1683 21.2646 43.1442 20.2887 43.1442 19.0757V17.8718C43.1442 14.7708 41.8309 11.8158 39.5234 9.73633L38.0276 8.38649C36.6504 7.13698 35.857 5.36761 35.857 3.4979V3.02364C35.857 1.81061 34.8811 0.834717 33.668 0.834717ZM6.67135 12.509C9.89089 12.509 12.5085 9.89138 12.5085 6.67184C12.5085 3.4523 9.89089 0.834717 6.67135 0.834717C3.45181 0.834717 0.834229 3.4523 0.834229 6.67184C0.834229 9.89138 3.45181 12.509 6.67135 12.509Z" fill="black"/>
</g>
<defs>
<clipPath id="clip0_318_909">
<rect width="46.697" height="46.697" fill="white" transform="translate(0.834229 0.834717)"/>
</clipPath>
</defs>
</svg>
