<svg width="61" height="61" viewBox="0 0 61 61" fill="none" xmlns="http://www.w3.org/2000/svg">
<path d="M30.5 22.5593C26.1275 22.5593 22.5593 26.1276 22.5593 30.5C22.5593 34.8725 26.1275 38.4407 30.5 38.4407C34.8725 38.4407 38.4407 34.8725 38.4407 30.5C38.4407 26.1276 34.8725 22.5593 30.5 22.5593ZM54.3162 30.5C54.3162 27.2117 54.346 23.9532 54.1613 20.6709C53.9767 16.8584 53.1069 13.4748 50.3191 10.6869C47.5252 7.89308 44.1476 7.02931 40.3351 6.84464C37.0468 6.65997 33.7883 6.68976 30.506 6.68976C27.2177 6.68976 23.9592 6.65997 20.6769 6.84464C16.8644 7.02931 13.4808 7.89904 10.6929 10.6869C7.89903 13.4808 7.03526 16.8584 6.85059 20.6709C6.66593 23.9592 6.69571 27.2177 6.69571 30.5C6.69571 33.7823 6.66593 37.0468 6.85059 40.3291C7.03526 44.1416 7.90499 47.5252 10.6929 50.3131C13.4867 53.1069 16.8644 53.9707 20.6769 54.1554C23.9651 54.3401 27.2236 54.3103 30.506 54.3103C33.7942 54.3103 37.0527 54.3401 40.3351 54.1554C44.1476 53.9707 47.5312 53.101 50.3191 50.3131C53.1129 47.5193 53.9767 44.1416 54.1613 40.3291C54.352 37.0468 54.3162 33.7883 54.3162 30.5ZM30.5 42.7179C23.7388 42.7179 18.2821 37.2612 18.2821 30.5C18.2821 23.7388 23.7388 18.2821 30.5 18.2821C37.2612 18.2821 42.7179 23.7388 42.7179 30.5C42.7179 37.2612 37.2612 42.7179 30.5 42.7179ZM43.2183 20.6352C41.6397 20.6352 40.3649 19.3604 40.3649 17.7818C40.3649 16.2031 41.6397 14.9283 43.2183 14.9283C44.7969 14.9283 46.0717 16.2031 46.0717 17.7818C46.0722 18.1566 45.9987 18.5279 45.8554 18.8743C45.7122 19.2207 45.502 19.5354 45.237 19.8005C44.9719 20.0655 44.6572 20.2757 44.3108 20.4189C43.9644 20.5622 43.5931 20.6356 43.2183 20.6352Z" fill="white"/>
</svg>
