<svg width="16" height="14" viewBox="0 0 16 14" fill="none" xmlns="http://www.w3.org/2000/svg">
<g clip-path="url(#clip0_335_769)">
<path d="M10.4428 3.38235e-08C9.74574 -7.98511e-05 9.0572 0.141346 8.42613 0.414229C7.79506 0.687112 7.23694 1.08475 6.79143 1.5789C6.34593 2.07304 6.02397 2.65155 5.84844 3.27333C5.67291 3.89511 5.64812 4.54489 5.77582 5.1765L0 10.5V13.125C0 13.3571 0.10002 13.5796 0.278057 13.7437C0.456094 13.9078 0.697564 14 0.949346 14H1.89869V13.125H3.79739V11.375H5.69608V9.625H7.59477L8.82702 8.48925C9.4784 8.70635 10.1734 8.78944 10.8633 8.73267C11.5532 8.6759 12.2213 8.48065 12.8207 8.16063C13.42 7.84061 13.9361 7.40358 14.3327 6.88019C14.7294 6.35681 14.9969 5.75976 15.1166 5.13095C15.2363 4.50214 15.2052 3.85681 15.0255 3.24025C14.8459 2.62369 14.522 2.05083 14.0766 1.5619C13.6313 1.07296 13.0752 0.679778 12.4474 0.409957C11.8197 0.140137 11.1355 0.000210585 10.4428 3.38235e-08ZM11.8649 4.37675C11.6779 4.37669 11.4926 4.34268 11.3198 4.27664C11.147 4.21061 10.99 4.11385 10.8578 3.99189C10.7256 3.86993 10.6207 3.72516 10.5492 3.56585C10.4776 3.40653 10.4408 3.23579 10.4409 3.06337C10.441 2.89096 10.4779 2.72024 10.5495 2.56097C10.6212 2.4017 10.7262 2.25699 10.8585 2.13512C10.9908 2.01324 11.1479 1.91658 11.3207 1.85065C11.4936 1.78472 11.6788 1.75082 11.8659 1.75087C12.2437 1.75099 12.606 1.88943 12.873 2.13573C13.1401 2.38204 13.29 2.71604 13.2899 3.06425C13.2898 3.41246 13.1396 3.74637 12.8723 3.99251C12.6051 4.23865 12.2427 4.37687 11.8649 4.37675Z" fill="black"/>
</g>
<defs>
<clipPath id="clip0_335_769">
<rect width="15.1895" height="14" fill="white"/>
</clipPath>
</defs>
</svg>
