<svg width="46" height="34" viewBox="0 0 46 34" fill="none" xmlns="http://www.w3.org/2000/svg">
<path d="M20.3148 33.7134C20.3148 33.7134 17.5231 33.7134 17.5231 30.9217C17.5231 28.13 20.3148 19.755 31.4815 19.755C42.6481 19.755 45.4398 28.13 45.4398 30.9217C45.4398 33.7134 42.6481 33.7134 42.6481 33.7134H20.3148ZM31.4815 16.9634C33.7027 16.9634 35.8329 16.081 37.4035 14.5104C38.9741 12.9398 39.8565 10.8096 39.8565 8.58838C39.8565 6.36719 38.9741 4.23698 37.4035 2.66636C35.8329 1.09574 33.7027 0.213379 31.4815 0.213379C29.2603 0.213379 27.1301 1.09574 25.5594 2.66636C23.9888 4.23698 23.1065 6.36719 23.1065 8.58838C23.1065 10.8096 23.9888 12.9398 25.5594 14.5104C27.1301 16.081 29.2603 16.9634 31.4815 16.9634Z" fill="black"/>
<path fill-rule="evenodd" clip-rule="evenodd" d="M15.3343 33.7132C14.9205 32.8417 14.7141 31.8862 14.7313 30.9215C14.7313 27.1388 16.6297 23.2444 20.136 20.5365C18.3859 19.9973 16.5625 19.7336 14.7313 19.7549C3.56468 19.7549 0.77301 28.1299 0.77301 30.9215C0.77301 33.7132 3.56468 33.7132 3.56468 33.7132H15.3343Z" fill="black"/>
<path d="M13.3356 16.9635C15.1865 16.9635 16.9617 16.2282 18.2706 14.9193C19.5794 13.6105 20.3147 11.8353 20.3147 9.98429C20.3147 8.1333 19.5794 6.35813 18.2706 5.04928C16.9617 3.74043 15.1865 3.00513 13.3356 3.00513C11.4846 3.00513 9.70938 3.74043 8.40053 5.04928C7.09169 6.35813 6.35638 8.1333 6.35638 9.98429C6.35638 11.8353 7.09169 13.6105 8.40053 14.9193C9.70938 16.2282 11.4846 16.9635 13.3356 16.9635Z" fill="black"/>
</svg>
