<svg width="52" height="52" viewBox="0 0 52 52" fill="none" xmlns="http://www.w3.org/2000/svg">
<path d="M51.2265 10.6966C49.4173 11.4983 47.4738 12.0399 45.4306 12.2848C47.5388 11.0233 49.116 9.03794 49.868 6.69909C47.8873 7.87557 45.7196 8.70368 43.459 9.14743C41.9388 7.5243 39.9253 6.44847 37.731 6.08695C35.5368 5.72544 33.2845 6.09847 31.324 7.14814C29.3635 8.19781 27.8043 9.86538 26.8887 11.892C25.973 13.9185 25.752 16.1907 26.26 18.3558C22.2466 18.1543 18.3205 17.1111 14.7364 15.2941C11.1523 13.477 7.99031 10.9266 5.45565 7.80843C4.58898 9.30343 4.09065 11.0368 4.09065 12.8828C4.08968 14.5446 4.49892 16.181 5.28205 17.6467C6.06519 19.1124 7.198 20.3622 8.57998 21.2851C6.97725 21.2341 5.40988 20.801 4.00832 20.0219V20.1519C4.00816 22.4827 4.81439 24.7417 6.29021 26.5457C7.76604 28.3498 9.82056 29.5876 12.1052 30.0493C10.6183 30.4516 9.05955 30.5109 7.54648 30.2226C8.19106 32.2281 9.44664 33.9818 11.1374 35.2383C12.8283 36.4947 14.8696 37.191 16.9758 37.2296C13.4005 40.0363 8.98491 41.5588 4.43948 41.5521C3.63431 41.5523 2.82982 41.5053 2.03015 41.4113C6.64402 44.3778 12.0149 45.9522 17.5001 45.9461C36.0685 45.9461 46.2193 30.5671 46.2193 17.2291C46.2193 16.7958 46.2085 16.3581 46.189 15.9248C48.1634 14.4969 49.8678 12.7287 51.2221 10.7031L51.2265 10.6966Z" fill="white"/>
</svg>
