<svg width="61" height="61" viewBox="0 0 61 61" fill="none" xmlns="http://www.w3.org/2000/svg">
<g clip-path="url(#clip0_78_4524)">
<path d="M59.7292 16.5389C59.3838 15.3067 58.711 14.1912 57.7823 13.3109C56.8273 12.4036 55.6569 11.7545 54.3815 11.425C49.6083 10.1669 30.4848 10.1669 30.4848 10.1669C22.5124 10.0762 14.542 10.4751 6.61851 11.3615C5.34308 11.7153 4.17486 12.3789 3.21776 13.2932C2.27735 14.198 1.59618 15.3138 1.24035 16.5363C0.385565 21.1412 -0.0297455 25.8168 1.22776e-05 30.5002C-0.0304877 35.1794 0.383804 39.8536 1.24035 44.4641C1.58855 45.6816 2.26718 46.7923 3.21014 47.6895C4.1531 48.5867 5.32735 49.2349 6.61851 49.578C11.4553 50.8336 30.4848 50.8336 30.4848 50.8336C38.4673 50.9244 46.4479 50.5255 54.3815 49.639C55.6569 49.3095 56.8273 48.6604 57.7823 47.7531C58.7106 46.8729 59.3827 45.7573 59.7266 44.5251C60.6037 39.9221 61.0302 35.2445 61 30.5587C61.066 25.8531 60.6401 21.1534 59.7292 16.5363V16.5389ZM24.4051 39.2029V21.8001L40.3159 30.5028L24.4051 39.2029Z" fill="white"/>
</g>
<defs>
<clipPath id="clip0_78_4524">
<rect width="61" height="61" fill="white"/>
</clipPath>
</defs>
</svg>
